# xmcd
#
# Track frame offsets:
#	150
#	12126
#	23594
#	36007
#	50457
#	65143
#	81270
#	92007
#	108491
#	120947
#	137113
#	151252
#
# Disc length: 2248 seconds
#
# Revision: 1
# Processed by: cddbd v1.5.2PL0 Copyright (c) Steve Scherf et al.
# Submitted via: audiograbber 1.83.01
#
DISCID=8f08c60c
DTITLE=Roly Daniels and Dee Reilly - Sweet Memories
DYEAR=1900
DGENRE=
TTITLE0=It's An Old Love Thing
TTITLE1=I'll Share My World With You
TTITLE2=Rainy Days And Stormy Nights
TTITLE3=Sweet Memories
TTITLE4=It Just Don't Get Any Better Than This
TTITLE5=A Picture Of Me Without You
TTITLE6=Shame On Me
TTITLE7=(I'll Be) Good As New
TTITLE8=Two Story House
TTITLE9=An Out Of Control Raging Fire
TTITLE10=Are You Teasing Me
TTITLE11=Why Can't We
EXTD=
EXTT0=
EXTT1=
EXTT2=
EXTT3=
EXTT4=
EXTT5=
EXTT6=
EXTT7=
EXTT8=
EXTT9=
EXTT10=
EXTT11=
PLAYORDER=
